<svg width="24" height="29" viewBox="0 0 24 29" fill="none" xmlns="http://www.w3.org/2000/svg">
<path d="M20.0436 15.3774C20.085 19.7577 23.9567 21.2154 23.9995 21.234C23.9667 21.3367 23.3809 23.3112 21.9598 25.3507C20.7313 27.114 19.4562 28.8707 17.4476 28.9071C15.4742 28.9428 14.8395 27.7579 12.5831 27.7579C10.3274 27.7579 9.62232 28.8707 7.75407 28.9428C5.81532 29.0149 4.33894 27.0362 3.10032 25.2793C0.569068 21.6858 -1.36528 15.1247 1.23207 10.6959C2.52235 8.49654 4.82832 7.1039 7.33107 7.06817C9.23485 7.03255 11.0318 8.32595 12.1957 8.32595C13.3587 8.32595 15.5424 6.77053 17.8381 6.99894C18.799 7.03825 21.4968 7.38009 23.229 9.87004C23.0893 9.95501 20.0101 11.7154 20.0436 15.3775M16.3345 4.6215C17.3639 3.39797 18.0566 1.6948 17.8676 0C16.3839 0.0585524 14.5899 0.970902 13.5257 2.19369C12.572 3.27663 11.7368 5.00982 11.9621 6.67101C13.6159 6.79668 15.3052 5.84576 16.3345 4.6215Z" fill="black"/>
</svg>
