<?xml version="1.0" encoding="UTF-8"?>
<svg version="1.1" xmlns="http://www.w3.org/2000/svg" width="256" height="256">
<path d="M0 0 C3.5659281 3.06521781 6.93835552 6.30815136 10.30273438 9.59375 C11.32997873 10.54968532 12.35865285 11.50408628 13.38867188 12.45703125 C22.2668592 20.81485468 32.0496187 31.6653008 33.80273438 44.15625 C33.30872357 60.55123363 15.45489369 75.2063037 4.48681641 85.60498047 C-0.86133543 90.47487146 -6.64726875 94.64578878 -12.69726562 98.59375 C-13.30248047 98.98997559 -13.90769531 99.38620117 -14.53125 99.79443359 C-29.84300755 109.67548011 -46.0794269 116.92719895 -63.69726562 121.59375 C-64.37128418 121.77309082 -65.04530273 121.95243164 -65.73974609 122.13720703 C-100.63190804 130.91911332 -137.82224233 121.82892996 -168.27050781 104.06445312 C-179.81023407 97.07096107 -190.05589038 89.00936301 -199.69726562 79.59375 C-200.72450998 78.63781468 -201.7531841 77.68341372 -202.78320312 76.73046875 C-211.66139045 68.37264532 -221.44414995 57.5221992 -223.19726562 45.03125 C-222.70325482 28.63626637 -204.84942494 13.9811963 -193.88134766 3.58251953 C-188.53319582 -1.28737146 -182.7472625 -5.45828878 -176.69726562 -9.40625 C-176.09205078 -9.80247559 -175.48683594 -10.19870117 -174.86328125 -10.60693359 C-159.5515237 -20.48798011 -143.31510435 -27.73969895 -125.69726562 -32.40625 C-125.02324707 -32.58559082 -124.34922852 -32.76493164 -123.65478516 -32.94970703 C-80.35299121 -43.84820903 -33.5090326 -27.76352528 0 0 Z M-185.69726562 10.59375 C-186.20741211 11.01736816 -186.71755859 11.44098633 -187.24316406 11.87744141 C-197.10216936 20.18913927 -208.54902954 31.14904174 -212.69726562 43.59375 C-209.54543161 59.28004532 -192.86823506 73.36503605 -180.69726562 82.59375 C-179.64925781 83.39554687 -178.60125 84.19734375 -177.52148438 85.0234375 C-149.13937808 106.26330197 -114.7497953 118.53638751 -79.04492188 114.09765625 C-50.9101642 109.84733482 -25.40977803 96.65993889 -3.69726562 78.59375 C-3.18711914 78.17013184 -2.67697266 77.74651367 -2.15136719 77.31005859 C7.70763811 68.99836073 19.15449829 58.03845826 23.30273438 45.59375 C20.15090036 29.90745468 3.47370381 15.82246395 -8.69726562 6.59375 C-9.74527344 5.79195312 -10.79328125 4.99015625 -11.87304688 4.1640625 C-66.9474324 -37.05107751 -133.57570563 -32.77469722 -185.69726562 10.59375 Z " fill="#808080" transform="translate(222.697265625,83.40625)"/>
<path d="M0 0 C5.18349069 4.48155966 9.68592136 9.17320765 13.375 14.95703125 C13.75269531 15.54613281 14.13039063 16.13523437 14.51953125 16.7421875 C21.15581811 28.44889579 21.50005256 42.36557782 18.65234375 55.21875 C14.92389311 67.82446408 6.04986121 79.20454818 -5.35546875 85.86328125 C-19.79381582 92.8215208 -33.39561006 93.20269639 -48.625 88.95703125 C-59.61309653 85.01060221 -68.40399036 76.71047539 -74.625 66.95703125 C-75.00269531 66.36792969 -75.38039063 65.77882813 -75.76953125 65.171875 C-82.66369841 53.01025428 -82.63350564 39.57444271 -79.58984375 26.41796875 C-76.04500871 13.7024876 -66.98945994 2.69343058 -55.625 -4.04296875 C-37.27552641 -12.07999643 -16.48268626 -12.82804303 0 0 Z M-59.5 12.08203125 C-68.47227353 21.69052054 -71.13479013 32.12886845 -70.90234375 44.8359375 C-70.37876271 56.1958226 -64.40493647 64.48260368 -56.5 72.14453125 C-48.07320081 79.33917661 -37.96289614 82.54819671 -26.98046875 81.76953125 C-15.16353363 80.14660454 -4.90035015 74.43224024 2.375 64.95703125 C9.05019759 53.76128845 11.4256587 42.60098615 8.69140625 29.7421875 C5.05660302 18.98859951 -2.51719003 9.83227447 -12.51953125 4.37890625 C-29.00376142 -2.9850374 -46.06009241 -0.34311821 -59.5 12.08203125 Z " fill="#808080" transform="translate(158.625,87.04296875)"/>
</svg>
