<svg width="29" height="27" viewBox="0 0 29 27" fill="none" xmlns="http://www.w3.org/2000/svg">
<path fill-rule="evenodd" clip-rule="evenodd" d="M14.5 0.15625C6.94484 0.15625 0.818359 6.28137 0.818359 13.8379C0.818359 19.883 4.73857 25.0113 10.1747 26.8206C10.8583 26.9475 11.1093 26.5238 11.1093 26.1625C11.1093 25.8362 11.0966 24.7584 11.0907 23.6152C7.28445 24.4428 6.48129 22.001 6.48129 22.001C5.85892 20.4195 4.96219 19.999 4.96219 19.999C3.72063 19.1499 5.05576 19.1676 5.05576 19.1676C6.42941 19.2639 7.15305 20.5775 7.15305 20.5775C8.37331 22.6686 10.3537 22.0642 11.1344 21.7148C11.2572 20.8305 11.6118 20.2267 12.0031 19.8851C8.96419 19.5396 5.76943 18.3662 5.76943 13.1238C5.76943 11.6301 6.30412 10.4096 7.17933 9.4512C7.03705 9.10683 6.56874 7.71528 7.31164 5.83073C7.31164 5.83073 8.46031 5.46302 11.0748 7.23316C12.1664 6.92979 13.3371 6.77731 14.5 6.7721C15.6623 6.77731 16.8336 6.92934 17.9272 7.2327C20.5386 5.46257 21.6859 5.83028 21.6859 5.83028C22.4306 7.7146 21.9623 9.10637 21.8202 9.45075C22.6975 10.4091 23.2283 11.6296 23.2283 13.1233C23.2283 18.3782 20.0277 19.535 16.9811 19.874C17.4721 20.2986 17.9093 21.1314 17.9093 22.4076C17.9093 24.2383 17.8935 25.7116 17.8935 26.1622C17.8935 26.5263 18.14 26.9529 18.8333 26.8186C24.2662 25.0074 28.1819 19.8808 28.1819 13.8379C28.1817 6.28182 22.0559 0.15625 14.5 0.15625Z" fill="#181616"/>
<path d="M6.0002 19.8C5.97007 19.8679 5.86313 19.8883 5.76571 19.8419C5.66602 19.7975 5.61052 19.7048 5.64269 19.6366C5.67214 19.5664 5.7793 19.5471 5.87831 19.594C5.978 19.6386 6.03464 19.7322 5.99998 19.8002L6.0002 19.8ZM6.55437 20.4183C6.48935 20.4787 6.3618 20.4506 6.27525 20.3548C6.18553 20.2597 6.16877 20.1321 6.23515 20.0707C6.30266 20.0104 6.42637 20.039 6.51609 20.1341C6.60535 20.2307 6.62302 20.3571 6.5546 20.4185L6.55437 20.4183ZM7.09405 21.206C7.01022 21.2645 6.87292 21.2099 6.78819 21.0882C6.70436 20.9663 6.70436 20.8202 6.79045 20.7619C6.87496 20.7035 7.01022 20.7563 7.09631 20.8768C7.17969 21.0003 7.17969 21.1466 7.09405 21.206ZM7.83287 21.9675C7.7581 22.0502 7.59815 22.028 7.48124 21.9154C7.36184 21.805 7.32854 21.648 7.40353 21.5656C7.47966 21.4826 7.64029 21.5057 7.75787 21.6177C7.87727 21.7278 7.9133 21.885 7.83332 21.9673L7.83287 21.9675ZM8.8524 22.4095C8.81909 22.5167 8.66548 22.5654 8.51029 22.5196C8.35555 22.4727 8.25427 22.3474 8.28599 22.2391C8.31771 22.1311 8.47245 22.0805 8.62855 22.1292C8.7833 22.1759 8.88457 22.3005 8.8524 22.4095ZM9.9723 22.4913C9.97615 22.6041 9.84474 22.6975 9.6823 22.6997C9.51849 22.7036 9.38595 22.6121 9.38437 22.501C9.38437 22.3871 9.51305 22.2949 9.67663 22.2917C9.83908 22.2887 9.97252 22.3794 9.97252 22.4911L9.9723 22.4913ZM11.014 22.3141C11.0335 22.424 10.9205 22.5371 10.7589 22.5672C10.6003 22.5966 10.4531 22.5282 10.4327 22.4192C10.4132 22.3064 10.5283 22.1934 10.6869 22.1641C10.8486 22.1363 10.9936 22.2024 11.014 22.3141Z" fill="#181616"/>
</svg>
