<svg width="29" height="29" viewBox="0 0 29 29" fill="none" xmlns="http://www.w3.org/2000/svg">
<g clip-path="url(#clip0_10_4139)">
<path d="M26.2812 0.679792H2.71875C2.18413 0.674351 1.66919 0.881216 1.28692 1.255C0.904643 1.62878 0.68626 2.13894 0.679688 2.67354V26.3312C0.687449 26.865 0.906355 27.374 1.2885 27.7468C1.67064 28.1196 2.18491 28.3259 2.71875 28.3204H26.2812C26.8159 28.3247 27.3305 28.1171 27.7126 27.7431C28.0946 27.3691 28.3131 26.859 28.3203 26.3244V2.66675C28.3108 2.13371 28.0912 1.62598 27.7094 1.25391C27.3276 0.881851 26.8144 0.675528 26.2812 0.679792Z" fill="#0076B2"/>
<path d="M4.77132 11.0403H8.87437V24.2421H4.77132V11.0403ZM6.82398 4.46997C7.29458 4.46997 7.7546 4.60955 8.14586 4.87105C8.53712 5.13254 8.84203 5.50421 9.02201 5.93903C9.202 6.37385 9.24898 6.85229 9.157 7.31381C9.06503 7.77534 8.83824 8.19921 8.50531 8.53182C8.17239 8.86442 7.7483 9.09082 7.28669 9.18235C6.82507 9.27388 6.34669 9.22645 5.91204 9.04605C5.47739 8.86565 5.10601 8.56038 4.84489 8.16888C4.58376 7.77737 4.44462 7.31721 4.44507 6.84661C4.44567 6.21608 4.69657 5.61158 5.14264 5.16593C5.5887 4.72029 6.19344 4.46997 6.82398 4.46997ZM11.4481 11.0403H15.3812V12.8528H15.4356C15.9839 11.8151 17.3206 10.7208 19.3166 10.7208C23.4718 10.7118 24.2421 13.4464 24.2421 16.9921V24.2421H20.1391V17.819C20.1391 16.2897 20.1119 14.3209 18.0071 14.3209C15.9023 14.3209 15.5444 15.9884 15.5444 17.7193V24.2421H11.4481V11.0403Z" fill="white"/>
</g>
<defs>
<clipPath id="clip0_10_4139">
<rect width="29" height="29" fill="white"/>
</clipPath>
</defs>
</svg>
